# Blender 4.2.0
# www.blender.org
mtllib BigrigInterior.mtl
o m911_body.001
v -6.538104 10.216537 5.476176
v 3.184710 10.163312 5.476175
v 6.555814 10.144857 5.476176
v 6.837065 9.921088 5.476176
v -6.920502 9.970607 5.476176
v -6.934702 8.732834 5.476176
v -6.655625 8.322806 5.476177
v -3.181274 8.307326 5.476176
v 6.503921 8.264173 5.476177
v 6.843302 8.679963 5.476176
v -4.305174 8.312334 5.476176
v -4.139730 8.638808 5.476175
v -3.435354 8.646808 5.476175
v -4.377180 10.204707 5.476176
v -4.128164 9.900550 5.476176
v -3.432098 9.897277 5.476176
v -3.232731 10.198442 5.476176
v 3.401646 9.892858 5.476175
v 3.428850 8.644434 5.476176
v 3.113304 8.279280 5.476178
v 4.335081 10.157014 5.476175
v 4.106355 9.892714 5.476175
v 4.098885 8.690782 5.476176
v 4.355872 8.273744 5.476178
v 6.267157 10.398928 -3.335846
v 6.223347 6.638490 -3.356144
v 6.103061 6.610276 -3.966372
v 6.020270 7.052314 -4.414742
v 6.011825 9.947569 -4.628424
v 6.089851 10.421371 -4.250114
v -6.271977 10.464115 -3.360460
v -6.240980 6.716516 -3.316120
v -6.098239 6.695222 -4.041132
v -6.021977 7.238349 -4.462559
v -6.031941 9.911663 -4.567680
v -6.107598 10.443743 -4.205172
v -5.365710 11.226764 -4.751492
v 5.365711 11.226764 -4.751492
v 5.601964 10.708108 -4.719616
v 5.612113 7.514844 -4.501913
v 5.053051 7.069528 -4.460691
v -5.095353 7.085990 -4.462152
v -5.558128 7.457776 -4.493856
v -5.536409 10.775354 -4.720634
v -7.340250 10.757577 4.088586
v -6.104055 -1.528855 -2.718058
v -7.400261 -1.540480 4.702451
v -7.399054 6.439483 4.691504
v -7.403290 10.100815 4.686480
v -6.097858 4.572331 -2.749224
v -6.145085 11.122549 -2.771742
v 6.152289 11.122534 -2.771395
v 6.094635 4.494307 -2.801342
v 6.086536 -1.417505 -2.842083
v 7.400902 -1.451584 4.643570
v 7.403125 6.439207 4.663721
v 7.408687 9.917068 4.672603
v 7.325713 10.776263 3.885543
v 0.000000 11.226766 -5.186260
v -7.657847 10.887273 2.679249
v -5.365710 11.226764 -5.186260
v 5.365711 11.226764 -5.186260
v 7.657848 10.887273 2.679249
v -6.572097 -1.528855 -2.718058
v -7.645075 -1.537311 2.679255
v -7.868303 -1.540480 4.702451
v -7.867096 6.439483 4.691504
v -7.871332 10.100815 4.686480
v -7.808292 10.757577 4.088586
v -6.565900 5.815871 -2.749224
v -6.613127 11.122549 -2.771742
v 6.613195 11.122534 -2.771395
v 6.555541 5.810076 -2.801342
v 6.547442 -1.417505 -2.842083
v 7.861807 -1.451583 4.643571
v 7.864030 6.439207 4.663721
v 7.869592 9.917068 4.672603
v 7.786618 10.776262 3.885543
v 5.601964 10.708108 -5.154385
v 5.612113 7.514844 -4.936682
v 5.053051 7.069528 -4.895460
v 0.000000 7.076882 -4.878607
v -5.095352 7.085990 -4.896921
v -5.558128 7.457776 -4.928625
v -5.536409 10.775354 -5.155403
v -6.494423 10.464115 -3.360460
v -6.463426 6.716516 -3.316120
v -6.320684 6.695222 -4.041132
v -6.244423 7.238349 -4.462559
v -6.254387 9.911663 -4.567680
v -6.330044 10.443743 -4.205172
v 6.498477 10.398928 -3.335846
v 6.454667 6.638490 -3.356144
v 6.334381 6.610276 -3.966372
v 6.251590 7.052314 -4.414742
v 6.243145 9.947569 -4.628424
v 6.321171 10.421371 -4.250114
v -6.538104 10.216537 5.780544
v 0.000000 10.180745 5.780544
v 6.555814 10.144857 5.780544
v 6.837065 9.921088 5.780544
v -6.920502 9.970607 5.780544
v -6.934702 8.732834 5.780544
v -6.655625 8.322806 5.780545
v 0.000000 8.293152 5.780545
v 6.503921 8.264173 5.780545
v 6.843302 8.679963 5.780544
v -4.305174 8.312334 5.780544
v -4.139730 8.638808 5.780543
v -3.435354 8.646808 5.780543
v -3.181274 8.307326 5.780544
v -4.377180 10.204707 5.780544
v -4.128164 9.900550 5.780544
v -3.432098 9.897277 5.780544
v 3.184710 10.163312 5.780543
v 3.401646 9.892858 5.780543
v 3.428850 8.644434 5.780544
v 3.113304 8.279280 5.780546
v 4.335081 10.157014 5.780543
v 4.106355 9.892714 5.780543
v 4.098885 8.690782 5.780544
v 4.355872 8.273744 5.780546
v 2.079406 1.535666 -6.803377
v 2.067737 1.564141 -6.725401
v 2.098899 1.487302 -6.737738
v 2.097827 1.531788 -6.729525
v 2.085327 1.567251 -6.654598
v 2.112422 1.488070 -6.659500
v -6.655626 -1.497267 5.476177
v 6.503921 -1.555898 5.476177
v 6.223347 3.974486 -3.145176
v -6.240980 4.052512 -3.105152
v 5.112040 3.262914 -6.592213
v -5.129673 3.340940 -6.552189
v 5.112040 -1.118127 -6.008209
v -5.129673 -1.040101 -5.968185
v -5.577747 0.721090 4.143065
v -1.078784 0.721090 4.143065
v -5.577747 0.721090 -0.443478
v -1.078784 0.721090 -0.443478
v -5.577747 2.688527 3.163711
v -1.078784 2.688527 3.163711
v -5.577747 2.688527 -0.443478
v -1.078784 2.688527 -0.443478
v -5.357584 7.851041 5.392553
v -1.298947 7.851041 5.392553
v -1.291629 7.851040 4.340142
v -5.364902 7.851040 4.340142
v 5.578205 0.721094 4.143068
v 1.079243 0.721094 4.143068
v 5.578205 0.721098 -0.443476
v 1.079243 0.721098 -0.443476
v 5.578205 2.688533 3.163714
v 1.079243 2.688533 3.163714
v 5.578205 2.688535 -0.443474
v 1.079243 2.688535 -0.443474
v 5.358042 7.851044 5.392563
v 1.299406 7.851044 5.392563
v 1.292088 7.851044 4.340151
v 5.365360 7.851044 4.340151
vn -0.0055 -1.0000 -0.0000
vn -0.6226 -0.7825 -0.0000
vn 0.5409 -0.8411 -0.0000
vn 0.9999 -0.0115 -0.0000
vn 0.8267 0.5627 -0.0000
vn 0.0045 1.0000 -0.0000
vn -0.7747 0.6323 -0.0000
vn -1.0000 -0.0050 -0.0000
vn -0.8920 0.4520 -0.0000
vn 0.8006 0.5992 -0.0000
vn -0.7738 -0.6335 -0.0000
vn -1.0000 0.0092 -0.0000
vn 1.0000 -0.0026 -0.0000
vn -0.7801 -0.6257 -0.0000
vn -0.9998 -0.0218 -0.0000
vn -0.7566 0.6538 -0.0000
vn 0.7562 -0.6544 -0.0000
vn 1.0000 -0.0062 -0.0000
vn 0.8513 0.5246 -0.0000
vn -0.0000 0.0054 -1.0000
vn -0.0000 0.9989 -0.0462
vn -0.0000 0.7121 0.7021
vn -0.0000 0.0736 0.9973
vn -0.0000 -0.6240 0.7815
vn -0.0000 -0.9997 -0.0245
vn -0.0000 -0.0118 -0.9999
vn -0.0000 0.9996 -0.0294
vn -0.0000 0.6130 0.7901
vn -0.0000 0.0393 0.9992
vn -0.0000 -0.5630 0.8264
vn -0.0000 -0.9997 0.0241
vn -0.0000 -1.0000 -0.0000
vn -0.9100 -0.4145 -0.0000
vn -1.0000 -0.0032 -0.0000
vn -0.6230 0.7822 -0.0000
vn 0.0016 1.0000 -0.0020
vn 0.0015 1.0000 -0.0000
vn 0.0018 1.0000 -0.0000
vn 0.6263 0.7796 -0.0000
vn 0.9354 -0.3537 -0.0000
vn 1.0000 -0.0065 -0.0000
vn 0.1780 0.0639 0.9819
vn 0.0487 0.0394 0.9980
vn 0.0626 0.0421 0.9972
vn 0.1879 0.0658 0.9800
vn -0.0959 0.0674 0.9931
vn -0.1289 0.0726 0.9890
vn -0.0965 -0.9929 -0.0696
vn -0.0000 -0.9991 -0.0431
vn -0.0000 1.0000 0.0016
vn -0.0000 -0.0014 -1.0000
vn -0.0000 -0.9958 -0.0916
vn -0.0000 -0.6732 -0.7395
vn 0.0112 0.0042 0.9999
vn -0.0000 0.0051 1.0000
vn -0.0000 0.0042 1.0000
vn 0.0093 0.0035 1.0000
vn 0.0881 -0.9938 -0.0672
vn -0.0000 -0.0056 1.0000
vn 0.0132 -0.0046 0.9999
vn 0.0161 -0.0057 0.9999
vn -0.0000 -0.0069 1.0000
vn -0.0000 0.0026 -1.0000
vn -0.0000 -0.6755 -0.7374
vn -0.0000 -0.0000 -1.0000
vn -0.9766 0.0125 -0.2148
vn -0.9815 0.0094 -0.1914
vn -0.8632 -0.3885 0.3224
vn -0.8658 -0.3739 0.3326
vn -0.5676 -0.8184 0.0900
vn -0.7481 -0.3344 0.5731
vn -0.8149 -0.0041 -0.5796
vn -0.8170 -0.0012 -0.5766
vn -0.8186 0.0011 -0.5743
vn -0.8199 0.0028 -0.5726
vn -0.6463 -0.5484 -0.5305
vn -0.5701 -0.7165 -0.4020
vn 0.8524 -0.0098 -0.5228
vn 0.8602 0.0003 -0.5099
vn 0.5933 -0.5723 -0.5661
vn 0.5337 -0.6942 -0.4830
vn 0.5791 -0.6057 -0.5457
vn 0.4897 -0.7614 -0.4249
vn 0.7259 -0.0000 -0.6878
vn 0.7206 -0.0011 -0.6934
vn -0.6794 0.0019 -0.7337
vn -0.6704 -0.0000 -0.7420
vn -0.6710 0.0001 -0.7414
vn -0.6804 0.0021 -0.7328
vn -0.3114 0.2542 -0.9156
vn 0.3508 0.2388 -0.9055
vn 0.9760 0.0056 -0.2176
vn 0.9749 0.0063 -0.2224
vn 0.9750 0.0062 -0.2222
vn 0.9762 0.0055 -0.2166
vn 0.8437 -0.4389 0.3090
vn 0.8661 -0.3002 0.3997
vn 0.5847 -0.8003 0.1331
vn 0.7299 -0.3110 0.6087
vn 0.0645 0.3950 0.9164
vn 0.0779 0.4763 0.8758
vn 0.0985 0.6014 0.7929
vn 0.0170 0.1059 0.9942
vn -0.0208 0.7100 0.7039
vn -0.0443 0.1471 0.9881
vn -0.0055 0.9929 0.1185
vn 0.0044 0.9982 -0.0600
vn -0.0069 1.0000 0.0022
vn -0.0080 1.0000 0.0041
vn -0.0091 0.9999 0.0061
vn -0.0060 1.0000 0.0005
vn 0.0071 0.9996 -0.0280
vn 0.0061 0.9989 -0.0474
vn 0.0009 0.7319 0.6815
vn 0.0011 0.7338 0.6794
vn -0.0038 -0.9324 -0.3614
vn -0.0051 -0.9286 -0.3711
vn -0.0000 -0.9986 -0.0521
vn -0.0000 -0.9986 -0.0526
vn -0.0000 -0.9986 -0.0522
vn 0.0037 0.0789 0.9969
vn -0.0055 -0.9797 0.2005
vn -0.0067 -0.9789 0.2042
vn 0.0049 0.1321 0.9912
vn -0.0075 0.9892 0.1465
vn 0.0079 0.9958 0.0917
vn 0.9381 -0.0215 -0.3458
vn 0.9292 -0.0028 -0.3695
vn 0.9319 -0.0083 -0.3627
vn 0.9404 -0.0268 -0.3389
vn 0.9534 0.0399 0.2991
vn 0.9551 0.0437 0.2929
vn -0.9347 0.0037 -0.3555
vn -0.9481 -0.0251 -0.3170
vn -0.9539 0.0409 0.2975
vn -0.9534 0.0399 0.2991
vn 0.0005 -0.9986 -0.0530
vn -0.0000 -0.9986 -0.0519
vn -0.0000 1.0000 -0.0000
vn 1.0000 -0.0000 -0.0000
vn -1.0000 -0.0000 -0.0000
vn -0.0000 -0.1726 0.9850
vn 0.9987 0.0228 0.0458
vn 0.9992 0.0396 0.0069
vn -0.0000 0.2222 -0.9750
vn -0.9992 0.0396 0.0069
vn -0.9987 0.0228 0.0458
vt 0.758440 0.852774
vt 0.734294 0.849373
vt 0.758440 0.849373
vt 0.734294 0.852774
vt 0.828478 0.838670
vt 0.864062 0.838670
vt 0.828478 0.842071
vt 0.759624 0.844190
vt 0.759624 0.847591
vt 0.755608 0.844190
vt 0.755608 0.847591
vt 0.763520 0.849373
vt 0.763520 0.852774
vt 0.777351 0.852774
vt 0.777351 0.849373
vt 0.782893 0.852774
vt 0.782893 0.849373
vt 0.809156 0.849373
vt 0.809156 0.852774
vt 0.805259 0.842071
vt 0.734926 0.842080
vt 0.770472 0.838674
vt 0.805259 0.838670
vt 0.741740 0.847591
vt 0.735743 0.844190
vt 0.741740 0.844190
vt 0.735743 0.847591
vt 0.715803 0.852774
vt 0.711714 0.849373
vt 0.715803 0.849373
vt 0.711714 0.852774
vt 0.734926 0.838679
vt 0.730188 0.842080
vt 0.730188 0.838679
vt 0.729902 0.849373
vt 0.729902 0.852774
vt 0.900184 0.842071
vt 0.716216 0.842080
vt 0.716216 0.838679
vt 0.824604 0.838670
vt 0.824604 0.842071
vt 0.810651 0.842071
vt 0.810651 0.838670
vt 0.784437 0.844190
vt 0.784437 0.847591
vt 0.788343 0.847591
vt 0.788343 0.844190
vt 0.801773 0.847591
vt 0.801773 0.844190
vt 0.711742 0.847591
vt 0.711742 0.844190
vt 0.807246 0.847591
vt 0.807246 0.844190
vt 0.916260 0.847151
vt 0.874243 0.845056
vt 0.874243 0.847640
vt 0.916260 0.844566
vt 0.867417 0.846400
vt 0.867417 0.848984
vt 0.860382 0.847325
vt 0.860382 0.849909
vt 0.827944 0.847419
vt 0.827944 0.850004
vt 0.821169 0.849132
vt 0.821169 0.846547
vt 0.810951 0.847151
vt 0.810951 0.844566
vt 0.915687 0.851880
vt 0.873811 0.849741
vt 0.915687 0.849395
vt 0.873811 0.852226
vt 0.865706 0.853822
vt 0.865706 0.851336
vt 0.858025 0.854674
vt 0.858025 0.852188
vt 0.828132 0.854562
vt 0.828132 0.852077
vt 0.820938 0.853717
vt 0.820938 0.851232
vt 0.811497 0.851880
vt 0.811497 0.849395
vt 0.967898 0.974102
vt 0.975609 0.974105
vt 0.968014 0.974727
vt 0.983177 0.974727
vt 0.983359 0.974110
vt 0.991431 0.845136
vt 0.977036 0.846165
vt 0.981634 0.838624
vt 0.986865 0.852795
vt 0.922064 0.810102
vt 0.925709 0.801853
vt 0.907986 0.805578
vt 0.909089 0.796703
vt 0.698528 0.796579
vt 0.803929 0.805158
vt 0.699567 0.805465
vt 0.688965 0.809676
vt 0.684726 0.801852
vt 0.624578 0.853644
vt 0.637572 0.854171
vt 0.629966 0.860751
vt 0.632188 0.847201
vt 0.638893 0.827985
vt 0.679397 0.793248
vt 0.973667 0.823166
vt 0.926648 0.789865
vt 0.967044 0.977482
vt 0.965380 0.987030
vt 0.964938 0.985068
vt 0.966392 0.977482
vt 0.470691 0.716200
vt 0.487923 0.776554
vt 0.482689 0.776554
vt 0.473428 0.693576
vt 0.468194 0.693576
vt 0.675184 0.629003
vt 0.669771 0.539971
vt 0.675006 0.539955
vt 0.669985 0.629126
vt 0.670417 0.670391
vt 0.675558 0.669153
vt 0.964729 0.987030
vt 0.679195 0.677694
vt 0.674745 0.679688
vt 0.711177 0.826976
vt 0.779349 0.821677
vt 0.793244 0.826906
vt 0.711177 0.821746
vt 0.852539 0.822204
vt 0.852539 0.827434
vt 0.986253 0.985068
vt 0.986432 0.986747
vt 0.985791 0.986747
vt 0.984158 0.977482
vt 0.984799 0.977482
vt 0.852495 0.834654
vt 0.793135 0.830147
vt 0.852495 0.829503
vt 0.778433 0.835298
vt 0.712377 0.830238
vt 0.712377 0.835388
vt 0.495512 0.627589
vt 0.492052 0.539351
vt 0.497209 0.539430
vt 0.490399 0.627414
vt 0.495082 0.666823
vt 0.490108 0.665498
vt 0.489118 0.678808
vt 0.484777 0.676616
vt 0.543471 0.666841
vt 0.535610 0.666510
vt 0.536268 0.653129
vt 0.543762 0.652857
vt 0.621521 0.667587
vt 0.621240 0.653583
vt 0.629292 0.667453
vt 0.629103 0.653390
vt 0.533438 0.648487
vt 0.547515 0.648752
vt 0.545757 0.669966
vt 0.532928 0.669353
vt 0.619377 0.671005
vt 0.632153 0.670788
vt 0.618254 0.649698
vt 0.631006 0.649812
vt 0.467744 0.631534
vt 0.475282 0.682396
vt 0.468721 0.674281
vt 0.473626 0.607047
vt 0.452791 0.683973
vt 0.453051 0.678071
vt 0.458331 0.674718
vt 0.453937 0.669406
vt 0.506232 0.666737
vt 0.506045 0.652900
vt 0.508187 0.670225
vt 0.660091 0.654922
vt 0.659956 0.668740
vt 0.657241 0.672964
vt 0.657593 0.650057
vt 0.657782 0.540458
vt 0.510896 0.538486
vt 0.509114 0.648045
vt 0.383921 0.682547
vt 0.383665 0.607986
vt 0.390117 0.632393
vt 0.390622 0.675052
vt 0.406457 0.683734
vt 0.406105 0.678595
vt 0.400238 0.674820
vt 0.404364 0.668764
vt 0.679479 0.781716
vt 0.927974 0.779699
vt 0.638938 0.694235
vt 0.628908 0.684924
vt 0.481755 0.684924
vt 0.624241 0.777941
vt 0.675666 0.766500
vt 0.931323 0.767317
vt 0.966497 0.988961
vt 0.984719 0.988961
vt 0.676170 0.711652
vt 0.931828 0.712470
vt 0.983948 0.972903
vt 0.966458 0.972960
vt 0.968018 0.968123
vt 0.982389 0.968067
vt 0.612780 0.862331
vt 0.498253 0.861884
vt 0.498818 0.812898
vt 0.613344 0.813345
vt 0.383310 0.538535
vt 0.387716 0.602069
vt 0.420306 0.544099
vt 0.426954 0.593969
vt 0.471989 0.539845
vt 0.469614 0.601206
vt 0.436054 0.543877
vt 0.430284 0.593800
vt 0.917396 0.205508
vt 0.917396 0.147582
vt 0.870952 0.147582
vt 0.870952 0.205508
vt 0.803622 0.202767
vt 0.803622 0.150322
vt 0.790072 0.150417
vt 0.790071 0.202660
vt 0.721240 0.220464
vt 0.683107 0.263511
vt 0.716870 0.266702
vt 0.688663 0.204720
vt 0.951309 0.205508
vt 0.951309 0.147582
vt 0.721824 0.131480
vt 0.718063 0.085189
vt 0.684261 0.087935
vt 0.689044 0.146795
vt 0.788423 0.216040
vt 0.788944 0.136786
vt 0.758810 0.128037
vt 0.805254 0.070111
vt 0.758810 0.070111
vt 0.805254 0.128037
vt 0.872583 0.125296
vt 0.886133 0.072946
vt 0.872583 0.072851
vt 0.886135 0.125189
vt 0.993098 0.186040
vt 0.954966 0.142993
vt 0.959335 0.189231
vt 0.987543 0.127249
vt 0.724897 0.128037
vt 0.724897 0.070111
vt 0.954381 0.054009
vt 0.991945 0.010464
vt 0.958143 0.007718
vt 0.987162 0.069324
vt 0.887782 0.138569
vt 0.887262 0.059315
s 0
usemtl temp3
f 1/1/1 112/2/1 98/3/1
f 112/2/1 1/1/1 14/4/1
f 115/5/1 99/6/1 2/7/1
f 100/8/2 3/9/2 101/10/2
f 101/10/2 3/9/2 4/11/2
f 102/12/3 5/13/3 98/3/3
f 98/3/3 5/13/3 1/1/3
f 6/14/4 5/13/4 102/12/4
f 102/12/4 103/15/4 6/14/4
f 6/14/5 103/15/5 7/16/5
f 103/15/5 104/17/5 7/16/5
f 7/16/6 108/18/6 11/19/6
f 108/18/6 7/16/6 104/17/6
f 20/20/6 8/21/6 105/22/6
f 20/20/6 105/22/6 118/23/6
f 10/24/7 106/25/7 107/26/7
f 106/25/7 10/24/7 9/27/7
f 4/11/8 107/26/8 101/10/8
f 107/26/8 4/11/8 10/24/8
f 12/28/9 108/29/9 109/30/9
f 108/29/9 12/28/9 11/31/9
f 111/32/6 105/22/6 8/21/6
f 13/33/10 110/34/10 8/21/10
f 110/34/10 111/32/10 8/21/10
f 14/4/11 113/35/11 112/2/11
f 113/35/11 14/4/11 15/36/11
f 17/37/1 2/7/1 99/6/1
f 15/36/12 109/30/12 113/35/12
f 109/30/12 15/36/12 12/28/12
f 16/38/13 110/34/13 13/33/13
f 110/34/13 16/38/13 114/39/13
f 2/7/14 116/40/14 115/5/14
f 116/40/14 2/7/14 18/41/14
f 116/40/15 19/42/15 117/43/15
f 19/42/15 116/40/15 18/41/15
f 117/43/16 20/20/16 118/23/16
f 20/20/16 117/43/16 19/42/16
f 119/44/1 3/9/1 100/8/1
f 3/9/1 119/44/1 21/45/1
f 21/45/17 119/44/17 22/46/17
f 119/44/17 120/47/17 22/46/17
f 23/48/18 22/46/18 120/47/18
f 120/47/18 121/49/18 23/48/18
f 24/50/6 106/25/6 9/27/6
f 106/25/6 24/50/6 122/51/6
f 23/48/19 121/49/19 24/52/19
f 121/49/19 122/53/19 24/52/19
f 25/54/20 93/55/20 26/56/20
f 93/55/20 25/54/20 92/57/20
f 26/56/21 94/58/21 27/59/21
f 94/58/21 26/56/21 93/55/21
f 27/59/22 95/60/22 28/61/22
f 95/60/22 27/59/22 94/58/22
f 96/62/23 28/61/23 95/60/23
f 28/61/23 96/62/23 29/63/23
f 30/64/24 96/62/24 97/65/24
f 96/62/24 30/64/24 29/63/24
f 25/66/25 97/65/25 92/67/25
f 97/65/25 25/66/25 30/64/25
f 31/68/26 87/69/26 86/70/26
f 87/69/26 31/68/26 32/71/26
f 32/71/27 33/72/27 88/73/27
f 88/73/27 87/69/27 32/71/27
f 33/72/28 34/74/28 89/75/28
f 89/75/28 88/73/28 33/72/28
f 35/76/29 89/75/29 34/74/29
f 89/75/29 35/76/29 90/77/29
f 36/78/30 90/77/30 35/76/30
f 90/77/30 36/78/30 91/79/30
f 31/80/31 91/79/31 36/78/31
f 91/79/31 31/80/31 86/81/31
f 61/82/32 59/83/32 37/84/32
f 38/85/32 37/84/32 59/83/32
f 38/85/32 59/83/32 62/86/32
f 38/87/33 79/88/33 39/89/33
f 79/88/33 38/87/33 62/90/33
f 39/89/34 80/91/34 40/92/34
f 80/91/34 39/89/34 79/88/34
f 81/93/35 40/92/35 80/91/35
f 40/92/35 81/93/35 41/94/35
f 42/95/36 41/94/36 82/96/36
f 81/93/37 82/96/37 41/94/37
f 82/96/38 83/97/38 42/95/38
f 84/98/39 43/99/39 83/97/39
f 83/97/39 43/99/39 42/95/39
f 37/100/40 85/101/40 61/102/40
f 85/101/40 37/100/40 44/103/40
f 44/103/41 84/98/41 85/101/41
f 84/98/41 44/103/41 43/99/41
s 1
f 35/104/42 34/105/43 43/99/44
f 43/99/44 44/103/45 35/104/42
f 39/89/46 40/92/46 29/106/46
f 28/107/47 29/106/47 40/92/47
s 0
f 51/108/48 45/109/48 60/110/48
f 60/110/49 71/111/49 51/108/49
f 65/112/50 46/113/50 64/114/50
f 47/115/50 46/113/50 65/112/50
f 65/112/50 66/116/50 47/115/50
f 67/117/51 47/118/51 66/119/51
f 47/118/51 67/117/51 48/120/51
f 49/121/51 67/117/51 68/122/51
f 67/117/51 49/121/51 48/120/51
f 69/123/52 60/110/52 45/109/52
f 69/124/53 49/121/53 68/122/53
f 49/121/53 69/124/53 45/125/53
f 64/126/54 50/127/54 70/128/54
f 50/127/55 64/126/55 46/129/55
f 70/128/56 51/130/56 71/131/56
f 50/127/57 51/130/57 70/128/57
f 63/132/52 78/133/52 58/134/52
f 63/132/49 52/135/49 72/136/49
f 52/135/58 63/132/58 58/134/58
f 52/137/59 73/138/59 72/139/59
f 52/137/60 53/140/60 73/138/60
f 74/141/61 73/138/61 53/140/61
f 74/141/62 53/140/62 54/142/62
f 56/143/63 75/144/63 55/145/63
f 75/144/63 56/143/63 76/146/63
f 57/147/63 76/146/63 56/143/63
f 76/146/63 57/147/63 77/148/63
f 57/147/64 58/149/64 78/150/64
f 78/150/64 77/148/64 57/147/64
s 1
f 18/151/65 22/152/65 23/153/65
f 18/151/65 23/153/65 19/154/65
f 16/155/65 13/156/65 15/157/65
f 15/157/65 13/156/65 12/158/65
f 24/159/65 20/160/65 19/154/65
f 24/159/65 19/154/65 23/153/65
f 2/161/65 21/162/65 22/152/65
f 2/161/65 22/152/65 18/151/65
f 15/157/65 17/163/65 16/155/65
f 14/164/65 17/163/65 15/157/65
f 8/165/65 11/166/65 13/156/65
f 13/156/65 11/166/65 12/158/65
f 26/167/66 52/168/66 25/169/66
f 53/170/67 52/168/67 26/167/67
f 52/168/68 38/171/68 25/169/68
f 25/169/69 38/171/69 39/172/69
s 0
f 25/169/70 39/172/70 30/173/70
f 39/172/71 29/174/71 30/173/71
s 1
f 4/175/72 57/147/73 10/176/74
f 57/147/73 56/143/75 10/176/74
f 3/177/76 58/149/76 57/147/76
f 3/177/77 57/147/77 4/175/77
f 6/178/78 49/121/78 5/179/78
f 48/120/79 49/121/79 6/178/79
f 45/125/80 1/180/81 49/121/82
f 49/121/82 1/180/81 5/179/83
s 0
f 7/181/65 11/166/65 129/182/65
f 20/160/65 129/182/65 8/165/65
f 129/182/65 20/160/65 130/183/65
f 24/159/65 9/184/65 130/183/65
f 20/160/65 24/159/65 130/183/65
f 11/166/65 8/165/65 129/182/65
s 1
f 7/181/84 129/182/84 48/120/84
f 48/120/85 129/182/85 47/118/85
f 130/183/86 9/184/87 56/143/88
f 130/183/86 56/143/88 55/145/89
s 0
f 10/176/90 56/143/90 9/184/90
f 7/181/91 48/120/91 6/178/91
s 1
f 51/185/92 50/186/93 32/187/94
f 51/185/92 32/187/94 31/188/95
f 37/189/96 51/185/96 31/188/96
f 37/189/97 31/188/97 44/190/97
s 0
f 44/190/98 31/188/98 36/191/98
f 35/192/99 44/190/99 36/191/99
s 1
f 42/95/100 34/105/101 33/193/102
f 34/105/101 42/95/100 43/99/103
f 41/94/104 27/194/104 28/107/104
f 41/94/105 28/107/105 40/92/105
f 55/195/106 47/115/106 130/196/106
f 130/196/107 47/115/107 129/197/107
f 46/113/108 55/195/109 54/198/110
f 55/195/109 46/113/108 47/115/111
f 27/194/112 33/193/112 32/199/112
f 27/194/113 32/199/113 26/200/113
f 27/194/114 42/95/114 33/193/114
f 42/95/115 27/194/115 41/94/115
f 58/134/116 1/201/116 45/109/116
f 1/201/117 58/134/117 3/202/117
f 51/108/118 38/85/119 52/135/120
f 38/85/119 51/108/119 37/84/119
s 0
f 26/200/121 32/199/121 132/203/121
f 26/200/121 132/203/121 131/204/121
f 131/205/122 132/206/122 134/207/122
f 131/205/123 134/207/123 133/208/123
f 133/209/124 134/210/124 136/211/124
f 133/209/124 136/211/124 135/212/124
s 1
f 46/113/125 54/198/125 136/211/125
f 136/211/126 54/198/126 135/212/126
f 50/186/127 46/213/128 132/214/129
f 132/214/129 32/187/130 50/186/127
f 132/214/131 136/215/131 134/216/131
f 136/215/132 132/214/132 46/213/132
f 54/217/133 53/170/133 131/218/133
f 53/170/134 26/167/134 131/218/134
f 131/218/135 135/219/135 54/217/135
f 135/219/136 131/218/136 133/220/136
f 58/134/137 45/109/137 51/108/137
f 58/134/138 51/108/118 52/135/120
s 0
f 144/221/139 143/222/139 141/223/139
f 144/221/139 141/223/139 142/224/139
f 147/225/139 148/226/139 145/227/139
f 147/225/139 145/227/139 146/228/139
f 142/229/140 140/230/140 144/231/140
f 140/230/140 142/229/140 138/232/140
f 143/222/65 144/221/65 140/233/65
f 143/222/65 140/233/65 139/234/65
f 141/235/141 143/236/141 139/237/141
f 139/237/141 137/238/141 141/235/141
f 146/228/142 145/227/142 137/238/142
f 146/228/142 137/238/142 138/232/142
f 142/229/143 146/228/143 138/232/143
f 146/228/144 142/229/144 147/239/144
f 148/226/145 147/225/145 142/224/145
f 148/226/145 142/224/145 141/223/145
f 148/240/146 141/235/146 145/227/146
f 137/238/147 145/227/147 141/235/147
f 156/241/139 153/242/139 155/243/139
f 153/242/139 156/241/139 154/244/139
f 159/245/139 157/246/139 160/247/139
f 157/246/139 159/245/139 158/248/139
f 152/249/141 154/250/141 156/251/141
f 154/250/141 152/249/141 150/252/141
f 155/243/65 152/253/65 156/241/65
f 152/253/65 155/243/65 151/254/65
f 153/255/140 151/256/140 155/257/140
f 151/256/140 153/255/140 149/258/140
f 158/248/142 149/258/142 157/246/142
f 149/258/142 158/248/142 150/252/142
f 158/248/147 154/250/147 150/252/147
f 154/250/146 158/248/146 159/259/146
f 160/247/145 154/244/145 159/245/145
f 154/244/145 160/247/145 153/242/145
f 157/246/143 149/258/143 153/255/143
f 157/246/144 153/255/144 160/260/144
