# Blender 4.2.0
# www.blender.org
mtllib Cabinboards.mtl
o Object_7.003
v -55.067741 -1.815948 79.637604
v -55.067741 -3.674324 -99.958618
v -55.067741 -1.815994 -99.958618
v -50.683167 -1.815994 -99.958618
v -50.683167 -3.674271 79.637604
v -50.683167 -3.674324 -99.958618
v -50.683167 -1.815994 -99.958618
v -50.683167 -1.815948 79.637604
v -55.067741 -3.674271 79.637604
v -50.683167 -1.815948 79.637604
v -55.067741 -1.815948 79.637604
v -55.067741 -3.674271 79.637604
v -50.683167 -3.674324 -99.958618
v -50.683167 -3.674271 79.637604
v -55.067741 -1.815994 -99.958618
v -45.860130 -3.674324 -99.958618
v -50.244701 -3.674324 -99.958618
v -50.244701 -1.815994 -99.958618
v -45.860130 -3.674271 79.637604
v -45.860130 -3.674324 -99.958618
v -45.860130 -1.815994 -99.958618
v -45.860130 -1.815948 79.637604
v -50.244701 -3.674271 79.637604
v -45.860130 -3.674271 79.637604
v -45.860130 -1.815948 79.637604
v -50.244701 -1.815948 79.637604
v -50.244701 -3.674271 79.637604
v -50.244701 -3.674324 -99.958618
v -45.860130 -3.674324 -99.958618
v -45.860130 -3.674271 79.637604
v -45.860130 -1.815948 79.637604
v -45.483265 -3.674324 -99.958618
v -45.483265 -3.674271 79.637604
v -45.483265 -1.815948 79.637604
v -41.098686 -3.674324 -99.958618
v -45.483265 -3.674324 -99.958618
v -41.098686 -1.815994 -99.958618
v -41.098686 -3.674271 79.637604
v -41.098686 -1.815994 -99.958618
v -41.098686 -1.815948 79.637604
v -45.483265 -3.674271 79.637604
v -41.098686 -1.815948 79.637604
v -45.483265 -3.674271 79.637604
v -45.483265 -3.674324 -99.958618
v -41.098686 -3.674271 79.637604
v -41.098686 -1.815948 79.637604
v -45.483265 -1.815994 -99.958618
v -45.483265 -1.815948 79.637604
v -40.598629 -3.674324 -99.958618
v -40.598629 -3.674271 79.637604
v -40.598629 -1.815948 79.637604
v -40.598629 -1.815994 -99.958618
v -36.214054 -3.674324 -99.958618
v -36.214054 -1.815994 -99.958618
v -36.214054 -3.674271 79.637604
v -36.214054 -3.674324 -99.958618
v -36.214054 -1.815948 79.637604
v -40.598629 -3.674271 79.637604
v -36.214054 -3.674271 79.637604
v -36.214054 -1.815948 79.637604
v -36.214054 -1.815994 -99.958618
v -40.598629 -1.815994 -99.958618
v -40.598629 -1.815948 79.637604
v -31.341738 -3.674324 -99.958618
v -35.726322 -1.815994 -99.958618
v -31.341738 -1.815994 -99.958618
v -31.341738 -3.674271 79.637604
v -31.341738 -3.674324 -99.958618
v -31.341738 -1.815948 79.637604
v -31.341738 -3.674271 79.637604
v -31.341738 -1.815948 79.637604
v -35.726322 -1.815948 79.637604
v -35.726322 -3.674271 79.637604
v -35.726322 -3.674324 -99.958618
v -31.341738 -1.815948 79.637604
v -31.341738 -1.815994 -99.958618
v -35.726322 -1.815948 79.637604
v -30.952557 -3.674324 -99.958618
v -30.952557 -3.674271 79.637604
v -30.952557 -1.815948 79.637604
v -30.952557 -1.815994 -99.958618
v -26.567978 -3.674324 -99.958618
v -30.952557 -3.674324 -99.958618
v -30.952557 -1.815994 -99.958618
v -30.952557 -3.674271 79.637604
v -26.567978 -3.674271 79.637604
v -26.567978 -1.815948 79.637604
v -26.567978 -1.815994 -99.958618
v -30.952557 -1.815948 79.637604
v -26.129522 -3.674271 79.637604
v -26.129522 -1.815948 79.637604
v -26.129522 -1.815994 -99.958618
v -21.744944 -3.674324 -99.958618
v -26.129522 -3.674324 -99.958618
v -21.744944 -1.815994 -99.958618
v -26.129522 -3.674271 79.637604
v -21.744944 -3.674271 79.637604
v -21.744944 -1.815948 79.637604
v -26.129522 -1.815948 79.637604
v -21.744944 -1.815948 79.637604
v -21.744944 -1.815994 -99.958618
v -26.129522 -1.815994 -99.958618
v -21.404995 -3.674324 -99.958618
v -21.404995 -3.674271 79.637604
v -21.404995 -1.815948 79.637604
v -21.404995 -1.815994 -99.958618
v -17.020416 -1.815994 -99.958618
v -21.404995 -3.674271 79.637604
v -17.020416 -3.674324 -99.958618
v -17.020416 -3.674271 79.637604
v -17.020416 -1.815948 79.637604
v -17.020416 -1.815994 -99.958618
v -21.404995 -1.815994 -99.958618
v -21.404995 -1.815948 79.637604
v -16.483448 -3.674271 79.637604
v -16.483448 -3.674324 -99.958618
v -12.098869 -3.674324 -99.958618
v -12.098869 -3.674271 79.637604
v -12.098869 -1.815948 79.637604
v -12.098869 -1.815994 -99.958618
v -16.483448 -1.815994 -99.958618
v -16.483448 -1.815948 79.637604
v -11.660419 -3.674324 -99.958618
v -11.660419 -3.674271 79.637604
v -11.660419 -1.815948 79.637604
v -11.660419 -1.815994 -99.958618
v -7.275837 -3.674324 -99.958618
v -11.660419 -1.815994 -99.958618
v -7.275837 -3.674271 79.637604
v -7.275837 -3.674324 -99.958618
v -7.275837 -1.815994 -99.958618
v -7.275837 -1.815948 79.637604
v -11.660419 -3.674271 79.637604
v -11.660419 -3.674324 -99.958618
v -7.275837 -3.674271 79.637604
v -7.275837 -1.815948 79.637604
v -7.275837 -1.815994 -99.958618
v -11.660419 -1.815994 -99.958618
v -11.660419 -1.815948 79.637604
v -6.837376 -3.674271 79.637604
v -6.837376 -1.815948 79.637604
v -2.452797 -3.674324 -99.958618
v -6.837376 -3.674324 -99.958618
v -6.837376 -1.815994 -99.958618
v -2.452797 -1.815994 -99.958618
v -2.452797 -3.674271 79.637604
v -2.452797 -3.674324 -99.958618
v -2.452797 -1.815994 -99.958618
v -2.452797 -1.815948 79.637604
v -6.837376 -3.674271 79.637604
v -6.837376 -3.674324 -99.958618
v -2.452797 -3.674324 -99.958618
v -2.452797 -3.674271 79.637604
v -2.452797 -1.815948 79.637604
v -6.837376 -1.815994 -99.958618
v -6.837376 -1.815948 79.637604
v -2.014343 -3.674316 -72.950623
v -2.014343 -3.674271 79.637604
v -2.014343 -1.815948 79.637604
v -2.014343 -1.815987 -72.950623
v 2.370239 -3.674316 -72.950623
v -2.014343 -1.815987 -72.950623
v 2.370239 -3.674271 79.637604
v 2.370239 -3.674316 -72.950623
v 2.370239 -1.815987 -72.950623
v 2.370239 -1.815948 79.637604
v -2.014343 -3.674271 79.637604
v -2.014343 -3.674316 -72.950623
v 2.370239 -3.674316 -72.950623
v 2.370239 -3.674271 79.637604
v 2.370239 -1.815948 79.637604
v -2.014343 -1.815987 -72.950623
v -2.014343 -1.815948 79.637604
v 2.808693 -3.674316 -72.950623
v 2.808693 -1.815987 -72.950623
v 7.193279 -1.815987 -72.950623
v 2.808693 -3.674271 79.637604
v 2.808693 -3.674316 -72.950623
v 7.193279 -3.674316 -72.950623
v 7.193279 -3.674271 79.637604
v 7.193279 -1.815948 79.637604
v 7.193279 -1.815987 -72.950623
v 2.808693 -1.815987 -72.950623
v 2.808693 -1.815948 79.637604
v 7.956539 -3.674316 -72.950623
v 7.956539 -3.674271 79.637604
v 7.956539 -1.815948 79.637604
v 7.956539 -3.674316 -72.950623
v 7.956539 -1.815987 -72.950623
v 12.341122 -3.674271 79.637604
v 12.341122 -3.674316 -72.950623
v 12.341122 -1.815987 -72.950623
v 12.341122 -1.815948 79.637604
v 7.956539 -3.674271 79.637604
v 7.956539 -3.674316 -72.950623
v 12.341122 -3.674316 -72.950623
v 12.341122 -3.674271 79.637604
v 12.341122 -1.815948 79.637604
v 12.341122 -1.815987 -72.950623
v 7.956539 -1.815987 -72.950623
v 7.956539 -1.815948 79.637604
vn -1.0000 -0.0000 -0.0000
vn -0.0000 -0.0000 -1.0000
vn 1.0000 -0.0000 -0.0000
vn -0.0000 -0.0000 1.0000
vn -0.0000 -1.0000 -0.0000
vn -0.0000 1.0000 -0.0000
vt 0.894744 1.000000
vt 0.894744 0.581495
vt 0.890632 0.581495
vt 0.890632 1.000000
vt 0.257300 0.188209
vt 0.257300 0.200776
vt 0.262594 0.200776
vt 0.262594 0.188209
vt 0.874185 0.581495
vt 0.874185 1.000000
vt 0.878297 1.000000
vt 0.878297 0.581495
vt 0.267888 0.188209
vt 0.267888 0.200776
vt 0.273182 0.200776
vt 0.273182 0.188209
vt 0.562021 0.581495
vt 0.562021 1.000000
vt 0.571723 1.000000
vt 0.571723 0.581495
vt 0.659039 1.000000
vt 0.659039 0.581495
vt 0.649337 0.581495
vt 0.649337 1.000000
vt 0.804113 0.627949
vt 0.804113 0.640516
vt 0.809407 0.640516
vt 0.809407 0.627949
vt 0.828953 1.000000
vt 0.828953 0.581495
vt 0.824841 0.581495
vt 0.824841 1.000000
vt 0.804113 0.615381
vt 0.809407 0.615381
vt 0.756055 1.000000
vt 0.756055 0.581495
vt 0.746354 0.581495
vt 0.746354 1.000000
vt 0.668741 1.000000
vt 0.668740 0.581495
vt 0.886520 1.000000
vt 0.886520 0.581495
vt 0.882408 0.581495
vt 0.882408 1.000000
vt 0.814701 0.640516
vt 0.814701 0.627949
vt 0.861849 1.000000
vt 0.861849 0.581495
vt 0.857737 0.581495
vt 0.857737 1.000000
vt 0.804113 0.590247
vt 0.804113 0.602814
vt 0.809407 0.602814
vt 0.809407 0.590247
vt 0.552320 0.581495
vt 0.552320 1.000000
vt 0.707547 1.000000
vt 0.707547 0.581495
vt 0.697846 0.581495
vt 0.697846 1.000000
vt 0.902968 1.000000
vt 0.902968 0.581495
vt 0.898856 0.581495
vt 0.898856 1.000000
vt 0.853625 1.000000
vt 0.853625 0.581495
vt 0.849513 0.581495
vt 0.849513 1.000000
vt 0.600829 0.581495
vt 0.600829 1.000000
vt 0.610530 1.000000
vt 0.610530 0.581495
vt 0.688144 0.581495
vt 0.688144 1.000000
vt 0.236125 0.188209
vt 0.236125 0.200776
vt 0.241419 0.200776
vt 0.241419 0.188209
vt 0.841289 1.000000
vt 0.841289 0.581495
vt 0.837177 0.581495
vt 0.837177 1.000000
vt 0.246713 0.200776
vt 0.246713 0.188209
vt 0.717249 0.581495
vt 0.717249 1.000000
vt 0.726950 1.000000
vt 0.726950 0.581495
vt 0.678442 1.000000
vt 0.678442 0.581495
vt 0.668741 0.581495
vt 0.376220 0.504091
vt 0.376220 0.085586
vt 0.372108 0.085586
vt 0.372108 0.504091
vt 0.169986 0.188208
vt 0.169986 0.200776
vt 0.175279 0.200776
vt 0.175279 0.188208
vt 0.581425 0.581495
vt 0.581425 1.000000
vt 0.591127 1.000000
vt 0.591127 0.581495
vt 0.629934 0.581495
vt 0.629934 1.000000
vt 0.639635 1.000000
vt 0.639635 0.581495
vt 0.143517 0.200776
vt 0.143517 0.188208
vt 0.138223 0.188208
vt 0.138223 0.200776
vt 0.192025 0.188208
vt 0.192025 0.200776
vt 0.197319 0.200776
vt 0.197319 0.188208
vt 0.870073 1.000000
vt 0.870073 0.581495
vt 0.865961 0.581495
vt 0.865961 1.000000
vt 0.252007 0.188209
vt 0.252007 0.200776
vt 0.542618 0.581495
vt 0.542618 1.000000
vt 0.552319 1.000000
vt 0.736652 1.000000
vt 0.736652 0.581495
vt 0.113482 0.175641
vt 0.113482 0.188208
vt 0.118776 0.188208
vt 0.118776 0.175641
vt 0.857737 0.581496
vt 0.853625 0.581496
vt 0.600828 1.000000
vt 0.639636 1.000000
vt 0.202613 0.188208
vt 0.202613 0.200776
vt 0.207906 0.200776
vt 0.207906 0.188208
vt 0.865961 0.581496
vt 0.861849 0.581496
vt 0.620232 0.581495
vt 0.620232 1.000000
vt 0.923528 1.000000
vt 0.923528 0.644431
vt 0.919416 0.644431
vt 0.919416 1.000000
vt 0.159398 0.188208
vt 0.159398 0.200776
vt 0.164692 0.200776
vt 0.164692 0.188208
vt 0.915304 0.644431
vt 0.915304 1.000000
vt 0.821302 0.225926
vt 0.821302 0.581495
vt 0.831004 0.581495
vt 0.831004 0.225926
vt 0.805438 0.644431
vt 0.805438 1.000000
vt 0.815140 1.000000
vt 0.815140 0.644431
vt 0.225538 0.200776
vt 0.225538 0.213343
vt 0.230832 0.213343
vt 0.230832 0.200776
vt 0.801899 0.225926
vt 0.801899 0.581495
vt 0.811601 0.581495
vt 0.811601 0.225926
vt 0.639636 0.225926
vt 0.629934 0.225926
vt 0.931751 1.000000
vt 0.931751 0.644431
vt 0.927639 0.644431
vt 0.927639 1.000000
vt 0.186731 0.188208
vt 0.186731 0.200776
vt 0.911192 1.000000
vt 0.911192 0.644431
vt 0.907080 0.644431
vt 0.907080 1.000000
vt 0.824841 0.644431
s 0
usemtl planks
f 2/1/1 9/2/1 1/3/1
f 1/3/1 15/4/1 2/1/1
f 6/5/2 2/6/2 3/7/2
f 3/7/2 4/8/2 6/5/2
f 5/9/3 6/10/3 7/11/3
f 7/11/3 8/12/3 5/9/3
f 9/13/4 5/14/4 10/15/4
f 10/15/4 11/16/4 9/13/4
f 12/17/5 2/18/5 13/19/5
f 13/19/5 14/20/5 12/17/5
f 10/21/6 4/22/6 15/23/6
f 15/23/6 1/24/6 10/21/6
f 16/25/2 17/26/2 18/27/2
f 18/27/2 21/28/2 16/25/2
f 19/29/3 20/30/3 21/31/3
f 21/31/3 22/32/3 19/29/3
f 23/33/4 24/25/4 25/28/4
f 25/28/4 26/34/4 23/33/4
f 27/35/5 28/36/5 29/37/5
f 29/37/5 30/38/5 27/35/5
f 31/22/6 21/21/6 18/39/6
f 18/39/6 26/40/6 31/22/6
f 32/41/1 33/42/1 34/43/1
f 34/43/1 47/44/1 32/41/1
f 35/28/2 36/27/2 47/45/2
f 47/45/2 37/46/2 35/28/2
f 38/47/3 35/48/3 39/49/3
f 39/49/3 40/50/3 38/47/3
f 41/51/4 38/52/4 42/53/4
f 42/53/4 48/54/4 41/51/4
f 43/55/5 44/56/5 35/18/5
f 35/18/5 45/17/5 43/55/5
f 46/57/6 39/58/6 47/59/6
f 47/59/6 48/60/6 46/57/6
f 49/61/1 50/62/1 51/63/1
f 51/63/1 52/64/1 49/61/1
f 53/52/2 49/33/2 62/34/2
f 62/34/2 54/53/2 53/52/2
f 55/65/3 56/66/3 54/67/3
f 54/67/3 57/68/3 55/65/3
f 58/69/5 49/70/5 53/71/5
f 53/71/5 59/72/5 58/69/5
f 60/60/6 61/59/6 62/73/6
f 62/73/6 63/74/6 60/60/6
f 64/75/2 74/76/2 65/77/2
f 65/77/2 66/78/2 64/75/2
f 67/79/3 68/80/3 66/81/3
f 66/81/3 69/82/3 67/79/3
f 73/78/4 70/77/4 71/83/4
f 71/83/4 72/84/4 73/78/4
f 73/85/5 74/86/5 68/87/5
f 68/87/5 70/88/5 73/85/5
f 75/89/6 76/90/6 65/91/6
f 65/91/6 77/39/6 75/89/6
f 78/92/1 79/93/1 80/94/1
f 80/94/1 81/95/1 78/92/1
f 82/96/2 83/97/2 84/98/2
f 84/98/2 88/99/2 82/96/2
f 85/100/5 78/101/5 82/102/5
f 82/102/5 86/103/5 85/100/5
f 87/104/6 88/105/6 81/106/6
f 81/106/6 89/107/6 87/104/6
f 94/44/1 90/43/1 91/12/1
f 91/12/1 92/11/1 94/44/1
f 93/108/2 94/109/2 102/110/2
f 102/110/2 95/111/2 93/108/2
f 96/112/4 97/113/4 98/114/4
f 98/114/4 99/115/4 96/112/4
f 100/86/6 101/85/6 102/58/6
f 102/58/6 99/57/6 100/86/6
f 103/116/1 104/117/1 105/118/1
f 105/118/1 106/119/1 103/116/1
f 109/6/2 103/5/2 113/120/2
f 113/120/2 107/121/2 109/6/2
f 108/20/5 103/19/5 109/101/5
f 109/101/5 110/100/5 108/20/5
f 111/74/6 112/73/6 113/90/6
f 113/90/6 114/89/6 111/74/6
f 115/122/5 116/123/5 117/124/5
f 117/124/5 118/55/5 115/122/5
f 119/125/6 120/126/6 121/88/6
f 121/88/6 122/87/6 119/125/6
f 123/10/1 124/9/1 125/117/1
f 125/117/1 126/116/1 123/10/1
f 127/127/2 123/128/2 128/129/2
f 128/129/2 131/130/2 127/127/2
f 129/50/3 130/131/3 131/132/3
f 131/132/3 132/65/3 129/50/3
f 133/103/5 134/102/5 127/133/5
f 127/133/5 135/69/5 133/103/5
f 136/107/6 137/134/6 138/24/6
f 138/24/6 139/23/6 136/107/6
f 143/4/1 140/3/1 141/42/1
f 141/42/1 155/41/1 143/4/1
f 142/135/2 143/136/2 144/137/2
f 144/137/2 145/138/2 142/135/2
f 146/119/3 147/139/3 148/140/3
f 148/140/3 149/47/3 146/119/3
f 150/141/5 151/142/5 152/105/5
f 152/105/5 153/104/5 150/141/5
f 154/38/6 145/37/6 155/126/6
f 155/126/6 156/125/6 154/38/6
f 157/143/1 158/144/1 159/145/1
f 159/145/1 160/146/1 157/143/1
f 161/147/2 157/148/2 162/149/2
f 162/149/2 165/150/2 161/147/2
f 163/146/3 164/145/3 165/151/3
f 165/151/3 166/152/3 163/146/3
f 167/153/5 168/154/5 169/155/5
f 169/155/5 170/156/5 167/153/5
f 171/157/6 165/158/6 172/159/6
f 172/159/6 173/160/6 171/157/6
f 179/161/2 174/162/2 175/163/2
f 175/163/2 176/164/2 179/161/2
f 177/165/5 178/166/5 179/167/5
f 179/167/5 180/168/5 177/165/5
f 181/107/6 182/169/6 183/170/6
f 183/170/6 184/104/6 181/107/6
f 185/171/1 186/172/1 187/173/1
f 187/173/1 189/174/1 185/171/1
f 196/175/2 188/176/2 189/113/2
f 189/113/2 192/112/2 196/175/2
f 190/177/3 191/178/3 192/179/3
f 192/179/3 193/180/3 190/177/3
f 194/160/5 195/159/5 196/32/5
f 196/32/5 197/181/5 194/160/5
f 198/168/6 199/167/6 200/154/6
f 200/154/6 201/153/6 198/168/6
