# Blender 4.3.2
# www.blender.org
mtllib Rug.mtl
o tapis
v -107.014778 0.000000 -96.992760
v -111.644920 0.000000 -91.624786
v -71.798470 0.000000 -58.923592
v -116.006470 0.000000 -86.036377
v -93.154465 0.000000 -62.243935
v -120.100685 0.000000 -80.248848
v -123.880875 0.000000 -74.251511
v -74.251297 0.000000 -123.880997
v -43.784061 0.000000 -81.914406
v -68.083160 0.000000 -127.374916
v -62.243767 0.000000 -93.154572
v -80.248642 0.000000 -120.100822
v -86.036171 0.000000 -116.006622
v -58.923458 0.000000 -71.798592
v -91.624580 0.000000 -111.645073
v -96.992577 0.000000 -107.014954
v -79.221329 0.000000 -79.221458
v -102.137207 0.000000 -102.137383
v -0.000007 0.000000 -0.000023
v -81.914314 0.000000 -43.784199
v -127.374809 0.000000 -68.083389
v -130.562317 0.000000 -61.751465
v -103.507713 0.000000 -42.874401
v 0.000079 0.000000 -112.035973
v 9.104026 0.000000 -92.434456
v -9.103919 0.000000 -92.434464
v -21.857021 0.000000 -109.883240
v -26.962053 0.000000 -88.882286
v -42.874210 0.000000 -103.507790
v -88.882210 0.000000 -26.962223
v -109.883224 0.000000 -21.857235
v -92.434441 0.000000 -9.104090
v -112.035980 0.000000 -0.000104
v -92.434456 0.000000 9.103908
v -109.883278 0.000000 21.857029
v -88.882271 0.000000 26.962053
v -103.507812 0.000000 42.874218
v -81.914406 0.000000 43.784069
v -93.154587 0.000000 62.243774
v -71.798599 0.000000 58.923466
v -79.221489 0.000000 79.221329
v -58.923607 0.000000 71.798485
v -62.243942 0.000000 93.154472
v -43.784210 0.000000 81.914330
v -42.874393 0.000000 103.507736
v -26.962206 0.000000 88.882240
v -141.668533 0.000000 28.179489
v -142.865875 0.000000 21.192055
v -140.100784 0.000000 35.093243
v -138.209839 0.000000 41.925354
v -135.986404 0.000000 48.656601
v -133.448883 0.000000 55.276188
v -130.562439 0.000000 61.751247
v -127.374947 0.000000 68.083176
v -123.881042 0.000000 74.251320
v -120.100861 0.000000 80.248650
v -116.006638 0.000000 86.036186
v -111.645096 0.000000 91.624588
v -107.014969 0.000000 96.992584
v -102.137398 0.000000 102.137230
v -96.992775 0.000000 107.014793
v -91.624794 0.000000 111.644936
v -86.036392 0.000000 116.006500
v -80.248871 0.000000 120.100716
v -74.251534 0.000000 123.880905
v -68.083397 0.000000 127.374825
v -61.751469 0.000000 130.562332
v -55.276417 0.000000 133.448792
v -48.656830 0.000000 135.986328
v -41.925583 0.000000 138.209793
v -35.093475 0.000000 140.100754
v -21.857212 0.000000 109.883247
v -28.179718 0.000000 141.668518
v -21.192282 0.000000 142.865906
v -9.104067 0.000000 92.434479
v -14.156597 0.000000 143.733429
v -7.086858 0.000000 144.255188
v -0.000071 0.000000 112.036011
v -0.000089 0.000000 144.444016
v 7.086679 0.000000 144.255173
v 9.103945 0.000000 92.434479
v 14.156420 0.000000 143.733429
v 21.192104 0.000000 142.865921
v 21.857077 0.000000 109.883278
v 28.179544 0.000000 141.668549
v 35.093304 0.000000 140.100800
v 26.962091 0.000000 88.882286
v 41.925411 0.000000 138.209869
v 48.656662 0.000000 135.986404
v 42.874268 0.000000 103.507797
v 43.784100 0.000000 81.914383
v 62.243828 0.000000 93.154572
v 58.923512 0.000000 71.798569
v 79.221367 0.000000 79.221443
v 71.798515 0.000000 58.923561
v 93.154503 0.000000 62.243900
v 81.914360 0.000000 43.784172
v 103.507729 0.000000 42.874359
v 88.882256 0.000000 26.962168
v 109.883240 0.000000 21.857168
v 92.434471 0.000000 9.104015
v 112.035988 0.000000 0.000020
v 92.434479 0.000000 -9.103992
v 55.276257 0.000000 133.448868
v 61.751312 0.000000 130.562439
v 68.083229 0.000000 127.374931
v 74.251381 0.000000 123.881027
v 80.248718 0.000000 120.100830
v 86.036240 0.000000 116.006615
v 91.624649 0.000000 111.645058
v 96.992645 0.000000 107.014946
v 102.137276 0.000000 102.137360
v 107.014847 0.000000 96.992744
v 111.644989 0.000000 91.624756
v 116.006538 0.000000 86.036346
v 120.100746 0.000000 80.248825
v 123.880928 0.000000 74.251480
v 127.374870 0.000000 68.083344
v 130.562363 0.000000 61.751415
v 133.448822 0.000000 55.276363
v 135.986343 0.000000 48.656784
v 138.209793 0.000000 41.925529
v 140.100754 0.000000 35.093422
v 141.668503 0.000000 28.179663
v 142.865875 0.000000 21.192226
v 143.733398 0.000000 14.156541
v 144.255142 0.000000 7.086801
v 144.443970 0.000000 0.000031
v 144.255142 0.000000 -7.086738
v 143.733414 0.000000 -14.156478
v 142.865875 0.000000 -21.192162
v 109.883232 0.000000 -21.857124
v 141.668518 0.000000 -28.179602
v 140.100754 0.000000 -35.093361
v 88.882271 0.000000 -26.962139
v 103.507751 0.000000 -42.874313
v 81.914360 0.000000 -43.784142
v 93.154510 0.000000 -62.243870
v 71.798523 0.000000 -58.923542
v 79.221375 0.000000 -79.221420
v 58.923512 0.000000 -71.798538
v 62.243824 0.000000 -93.154526
v 43.784100 0.000000 -81.914368
v 42.874271 0.000000 -103.507744
v 26.962107 0.000000 -88.882263
v 21.857121 0.000000 -109.883240
v 138.209808 0.000000 -41.925472
v 86.036247 0.000000 -116.006577
v 91.624664 0.000000 -111.645027
v 80.248726 0.000000 -120.100769
v 74.251381 0.000000 -123.880959
v 68.083244 0.000000 -127.374886
v 61.751312 0.000000 -130.562378
v 55.276257 0.000000 -133.448822
v 48.656673 0.000000 -135.986328
v 41.925423 0.000000 -138.209778
v 35.093327 0.000000 -140.100739
v 28.179588 0.000000 -141.668488
v 21.192184 0.000000 -142.865860
v 14.156545 0.000000 -143.733383
v 7.086847 0.000000 -144.255112
v 0.000115 0.000000 -144.443939
v -7.086629 0.000000 -144.255112
v -14.156357 0.000000 -143.733383
v -21.192034 0.000000 -142.865860
v -28.179472 0.000000 -141.668518
v -35.093227 0.000000 -140.100754
v -41.925339 0.000000 -138.209824
v -48.656590 0.000000 -135.986374
v -55.276176 0.000000 -133.448837
v -61.751236 0.000000 -130.562408
v 135.986343 0.000000 -48.656719
v 133.448822 0.000000 -55.276302
v 130.562378 0.000000 -61.751366
v 127.374878 0.000000 -68.083282
v 123.880951 0.000000 -74.251434
v 120.100754 0.000000 -80.248764
v 116.006546 0.000000 -86.036285
v 111.644989 0.000000 -91.624695
v 107.014862 0.000000 -96.992683
v 102.137276 0.000000 -102.137321
v 96.992653 0.000000 -107.014885
v -133.448746 0.000000 -55.276421
v -135.986298 0.000000 -48.656837
v -138.209732 0.000000 -41.925594
v -140.100693 0.000000 -35.093494
v -141.668457 0.000000 -28.179741
v -142.865829 0.000000 -21.192307
v -143.733353 0.000000 -14.156630
v -144.255112 0.000000 -7.086894
v -144.443939 0.000000 -0.000128
v -144.255127 0.000000 7.086636
v -143.733414 0.000000 14.156372
vn -0.0000 1.0000 -0.0000
vt 0.572357 0.006557
vt 0.596165 0.011293
vt 0.561825 0.183935
vt 0.619974 0.016028
vt 0.596166 0.011293
vt 0.611025 0.128748
vt 0.643782 0.020764
vt 0.666209 0.030054
vt 0.427643 0.006557
vt 0.438175 0.183935
vt 0.403834 0.011293
vt 0.462511 0.114121
vt 0.451451 0.001821
vt 0.475725 0.001821
vt 0.500000 0.177846
vt 0.500000 0.001821
vt 0.524275 0.001821
vt 0.537489 0.114121
vt 0.548549 0.001821
vt 0.500000 0.494751
vt 0.621274 0.201969
vt 0.688636 0.039343
vt 0.711063 0.048633
vt 0.680295 0.157441
vt 0.257363 0.199096
vt 0.275915 0.270665
vt 0.323938 0.231254
vt 0.319705 0.157441
vt 0.378726 0.201969
vt 0.388975 0.128749
vt 0.676062 0.231254
vt 0.742637 0.199096
vt 0.724085 0.270665
vt 0.795654 0.252113
vt 0.763496 0.318688
vt 0.837309 0.314455
vt 0.792781 0.373476
vt 0.866002 0.383725
vt 0.810815 0.432925
vt 0.880629 0.457261
vt 0.816904 0.494750
vt 0.880629 0.532239
vt 0.810815 0.556576
vt 0.866002 0.605777
vt 0.792781 0.616025
vt 0.837309 0.675046
vt 0.763496 0.670813
vt 0.936828 0.261261
vt 0.923342 0.241077
vt 0.946118 0.283688
vt 0.955407 0.306114
vt 0.964697 0.328541
vt 0.973986 0.350968
vt 0.978722 0.374776
vt 0.983458 0.398584
vt 0.988193 0.422393
vt 0.992929 0.446201
vt 0.992929 0.470475
vt 0.992929 0.494750
vt 0.992929 0.519025
vt 0.992929 0.543300
vt 0.988193 0.567108
vt 0.983457 0.590917
vt 0.978721 0.614725
vt 0.973986 0.638534
vt 0.964696 0.660961
vt 0.955407 0.683387
vt 0.946117 0.705814
vt 0.936828 0.728240
vt 0.923342 0.748424
vt 0.909855 0.768607
vt 0.896369 0.788791
vt 0.795654 0.737387
vt 0.882883 0.808974
vt 0.865718 0.826139
vt 0.724085 0.718836
vt 0.848553 0.843304
vt 0.831389 0.860469
vt 0.742637 0.790404
vt 0.814224 0.877634
vt 0.794040 0.891120
vt 0.676062 0.758247
vt 0.773856 0.904606
vt 0.753673 0.918092
vt 0.680295 0.832060
vt 0.733489 0.931579
vt 0.711062 0.940868
vt 0.621274 0.787532
vt 0.688635 0.950158
vt 0.666209 0.959447
vt 0.611025 0.860752
vt 0.561825 0.805565
vt 0.537488 0.875380
vt 0.500000 0.811655
vt 0.462511 0.875380
vt 0.438175 0.805565
vt 0.388974 0.860752
vt 0.378726 0.787532
vt 0.319704 0.832059
vt 0.323937 0.758246
vt 0.257363 0.790404
vt 0.275915 0.718835
vt 0.204346 0.737387
vt 0.236503 0.670812
vt 0.643782 0.968737
vt 0.619974 0.973472
vt 0.596165 0.978208
vt 0.572357 0.982944
vt 0.548549 0.987679
vt 0.524274 0.987679
vt 0.499999 0.987679
vt 0.475725 0.987679
vt 0.451450 0.987679
vt 0.427642 0.982944
vt 0.403834 0.978208
vt 0.380026 0.973472
vt 0.356218 0.968737
vt 0.333791 0.959447
vt 0.311364 0.950157
vt 0.288937 0.940868
vt 0.266510 0.931578
vt 0.246327 0.918092
vt 0.226143 0.904606
vt 0.205959 0.891119
vt 0.185776 0.877633
vt 0.168611 0.860468
vt 0.151446 0.843303
vt 0.134281 0.826138
vt 0.117117 0.808974
vt 0.103630 0.788790
vt 0.090144 0.768606
vt 0.076658 0.748423
vt 0.236504 0.670813
vt 0.162690 0.675045
vt 0.063172 0.728239
vt 0.053882 0.705812
vt 0.207218 0.616024
vt 0.133998 0.605775
vt 0.189185 0.556575
vt 0.119371 0.532239
vt 0.183096 0.494750
vt 0.119371 0.457261
vt 0.189185 0.432925
vt 0.133998 0.383725
vt 0.207219 0.373476
vt 0.162691 0.314454
vt 0.236504 0.318687
vt 0.204346 0.252113
vt 0.044593 0.683385
vt 0.021278 0.374776
vt 0.016543 0.398584
vt 0.026014 0.350968
vt 0.035304 0.328541
vt 0.044593 0.306114
vt 0.053883 0.283687
vt 0.063172 0.261260
vt 0.076659 0.241077
vt 0.090145 0.220893
vt 0.103631 0.200709
vt 0.117118 0.180526
vt 0.134282 0.163361
vt 0.151447 0.146197
vt 0.168612 0.129032
vt 0.185776 0.111867
vt 0.205960 0.098381
vt 0.226144 0.084895
vt 0.246327 0.071409
vt 0.266511 0.057922
vt 0.288938 0.048633
vt 0.311364 0.039343
vt 0.333791 0.030054
vt 0.356218 0.020764
vt 0.380026 0.016029
vt 0.035303 0.660959
vt 0.044593 0.683386
vt 0.026014 0.638532
vt 0.021278 0.614724
vt 0.016542 0.590916
vt 0.011807 0.567108
vt 0.007071 0.543300
vt 0.007071 0.519025
vt 0.007071 0.494750
vt 0.007071 0.470475
vt 0.007071 0.446200
vt 0.011807 0.422392
vt 0.733489 0.057922
vt 0.753673 0.071408
vt 0.773856 0.084895
vt 0.794040 0.098381
vt 0.814223 0.111867
vt 0.831388 0.129032
vt 0.848553 0.146197
vt 0.865718 0.163362
vt 0.882883 0.180526
vt 0.896369 0.200710
vt 0.909855 0.220894
s 1
usemtl sol
f 1/1/1 2/2/1 3/3/1
f 4/4/1 3/3/1 2/5/1
f 4/4/1 5/6/1 3/3/1
f 6/7/1 5/6/1 4/4/1
f 6/7/1 7/8/1 5/6/1
f 8/9/1 9/10/1 10/11/1
f 8/9/1 11/12/1 9/10/1
f 12/13/1 11/12/1 8/9/1
f 12/13/1 13/14/1 11/12/1
f 13/14/1 14/15/1 11/12/1
f 13/14/1 15/16/1 14/15/1
f 16/17/1 14/15/1 15/16/1
f 16/17/1 17/18/1 14/15/1
f 18/19/1 17/18/1 16/17/1
f 18/19/1 1/1/1 17/18/1
f 1/1/1 3/3/1 17/18/1
f 17/18/1 3/3/1 19/20/1
f 5/6/1 19/20/1 3/3/1
f 5/6/1 20/21/1 19/20/1
f 7/8/1 20/21/1 5/6/1
f 7/8/1 21/22/1 20/21/1
f 22/23/1 20/21/1 21/22/1
f 22/23/1 23/24/1 20/21/1
f 24/25/1 19/20/1 25/26/1
f 24/25/1 26/27/1 19/20/1
f 27/28/1 19/20/1 26/27/1
f 27/28/1 28/29/1 19/20/1
f 29/30/1 19/20/1 28/29/1
f 29/30/1 9/10/1 19/20/1
f 11/12/1 19/20/1 9/10/1
f 11/12/1 14/15/1 19/20/1
f 17/18/1 19/20/1 14/15/1
f 23/24/1 19/20/1 20/21/1
f 23/24/1 30/31/1 19/20/1
f 31/32/1 19/20/1 30/31/1
f 31/32/1 32/33/1 19/20/1
f 33/34/1 19/20/1 32/33/1
f 33/34/1 34/35/1 19/20/1
f 35/36/1 19/20/1 34/35/1
f 35/36/1 36/37/1 19/20/1
f 37/38/1 19/20/1 36/37/1
f 37/38/1 38/39/1 19/20/1
f 39/40/1 19/20/1 38/39/1
f 39/40/1 40/41/1 19/20/1
f 41/42/1 19/20/1 40/41/1
f 41/42/1 42/43/1 19/20/1
f 43/44/1 19/20/1 42/43/1
f 43/44/1 44/45/1 19/20/1
f 45/46/1 19/20/1 44/45/1
f 45/46/1 46/47/1 19/20/1
f 47/48/1 35/36/1 48/49/1
f 47/48/1 49/50/1 35/36/1
f 49/50/1 36/37/1 35/36/1
f 49/50/1 50/51/1 36/37/1
f 51/52/1 36/37/1 50/51/1
f 51/52/1 37/38/1 36/37/1
f 52/53/1 37/38/1 51/52/1
f 52/53/1 53/54/1 37/38/1
f 53/54/1 38/39/1 37/38/1
f 53/54/1 54/55/1 38/39/1
f 55/56/1 38/39/1 54/55/1
f 55/56/1 39/40/1 38/39/1
f 56/57/1 39/40/1 55/56/1
f 56/57/1 57/58/1 39/40/1
f 57/58/1 40/41/1 39/40/1
f 57/58/1 58/59/1 40/41/1
f 59/60/1 40/41/1 58/59/1
f 59/60/1 41/42/1 40/41/1
f 60/61/1 41/42/1 59/60/1
f 60/61/1 61/62/1 41/42/1
f 61/62/1 42/43/1 41/42/1
f 61/62/1 62/63/1 42/43/1
f 63/64/1 42/43/1 62/63/1
f 63/64/1 43/44/1 42/43/1
f 64/65/1 43/44/1 63/64/1
f 64/65/1 65/66/1 43/44/1
f 65/66/1 44/45/1 43/44/1
f 65/66/1 66/67/1 44/45/1
f 67/68/1 44/45/1 66/67/1
f 67/68/1 45/46/1 44/45/1
f 68/69/1 45/46/1 67/68/1
f 68/69/1 69/70/1 45/46/1
f 69/70/1 46/47/1 45/46/1
f 69/70/1 70/71/1 46/47/1
f 71/72/1 46/47/1 70/71/1
f 71/72/1 72/73/1 46/47/1
f 73/74/1 72/73/1 71/72/1
f 73/74/1 74/75/1 72/73/1
f 74/75/1 75/76/1 72/73/1
f 74/75/1 76/77/1 75/76/1
f 77/78/1 75/76/1 76/77/1
f 77/78/1 78/79/1 75/76/1
f 79/80/1 78/79/1 77/78/1
f 79/80/1 80/81/1 78/79/1
f 80/81/1 81/82/1 78/79/1
f 80/81/1 82/83/1 81/82/1
f 83/84/1 81/82/1 82/83/1
f 83/84/1 84/85/1 81/82/1
f 85/86/1 84/85/1 83/84/1
f 85/86/1 86/87/1 84/85/1
f 86/87/1 87/88/1 84/85/1
f 86/87/1 88/89/1 87/88/1
f 89/90/1 87/88/1 88/89/1
f 89/90/1 90/91/1 87/88/1
f 72/73/1 19/20/1 46/47/1
f 72/73/1 75/76/1 19/20/1
f 78/79/1 19/20/1 75/76/1
f 78/79/1 81/82/1 19/20/1
f 84/85/1 19/20/1 81/82/1
f 84/85/1 87/88/1 19/20/1
f 90/91/1 19/20/1 87/88/1
f 90/91/1 91/92/1 19/20/1
f 92/93/1 19/20/1 91/92/1
f 92/93/1 93/94/1 19/20/1
f 94/95/1 19/20/1 93/94/1
f 94/95/1 95/96/1 19/20/1
f 96/97/1 19/20/1 95/96/1
f 96/97/1 97/98/1 19/20/1
f 98/99/1 19/20/1 97/98/1
f 98/99/1 99/100/1 19/20/1
f 100/101/1 19/20/1 99/100/1
f 100/101/1 101/102/1 19/20/1
f 102/103/1 19/20/1 101/102/1
f 102/103/1 103/104/1 19/20/1
f 104/105/1 90/91/1 89/90/1
f 104/105/1 105/106/1 90/91/1
f 105/106/1 91/92/1 90/91/1
f 105/106/1 106/107/1 91/92/1
f 107/108/1 91/92/1 106/107/1
f 107/108/1 92/93/1 91/92/1
f 108/109/1 92/93/1 107/108/1
f 108/109/1 109/110/1 92/93/1
f 109/110/1 93/94/1 92/93/1
f 109/110/1 110/111/1 93/94/1
f 111/112/1 93/94/1 110/111/1
f 111/112/1 94/95/1 93/94/1
f 112/113/1 94/95/1 111/112/1
f 112/113/1 113/114/1 94/95/1
f 113/114/1 95/96/1 94/95/1
f 113/114/1 114/115/1 95/96/1
f 115/116/1 95/96/1 114/115/1
f 115/116/1 96/97/1 95/96/1
f 116/117/1 96/97/1 115/116/1
f 116/117/1 117/118/1 96/97/1
f 117/118/1 97/98/1 96/97/1
f 117/118/1 118/119/1 97/98/1
f 119/120/1 97/98/1 118/119/1
f 119/120/1 98/99/1 97/98/1
f 120/121/1 98/99/1 119/120/1
f 120/121/1 121/122/1 98/99/1
f 121/122/1 99/100/1 98/99/1
f 121/122/1 122/123/1 99/100/1
f 123/124/1 99/100/1 122/123/1
f 123/124/1 100/101/1 99/100/1
f 124/125/1 100/101/1 123/124/1
f 124/125/1 125/126/1 100/101/1
f 125/126/1 101/102/1 100/101/1
f 125/126/1 126/127/1 101/102/1
f 127/128/1 101/102/1 126/127/1
f 127/128/1 102/103/1 101/102/1
f 128/129/1 102/103/1 127/128/1
f 128/129/1 129/130/1 102/103/1
f 129/130/1 103/104/1 102/103/1
f 129/130/1 130/131/1 103/104/1
f 131/132/1 103/133/1 130/131/1
f 131/132/1 132/134/1 103/133/1
f 133/135/1 132/134/1 131/132/1
f 133/135/1 134/136/1 132/134/1
f 134/136/1 135/137/1 132/134/1
f 132/134/1 135/137/1 19/20/1
f 136/138/1 19/20/1 135/137/1
f 136/138/1 137/139/1 19/20/1
f 138/140/1 19/20/1 137/139/1
f 138/140/1 139/141/1 19/20/1
f 140/142/1 19/20/1 139/141/1
f 140/142/1 141/143/1 19/20/1
f 142/144/1 19/20/1 141/143/1
f 142/144/1 143/145/1 19/20/1
f 144/146/1 19/20/1 143/145/1
f 144/146/1 145/147/1 19/20/1
f 146/148/1 19/20/1 145/147/1
f 146/148/1 25/26/1 19/20/1
f 132/134/1 19/20/1 103/133/1
f 134/136/1 147/149/1 135/137/1
f 148/150/1 141/143/1 149/151/1
f 148/150/1 142/144/1 141/143/1
f 150/152/1 142/144/1 148/150/1
f 150/152/1 151/153/1 142/144/1
f 151/153/1 143/145/1 142/144/1
f 151/153/1 152/154/1 143/145/1
f 153/155/1 143/145/1 152/154/1
f 153/155/1 144/146/1 143/145/1
f 154/156/1 144/146/1 153/155/1
f 154/156/1 155/157/1 144/146/1
f 155/157/1 145/147/1 144/146/1
f 155/157/1 156/158/1 145/147/1
f 157/159/1 145/147/1 156/158/1
f 157/159/1 146/148/1 145/147/1
f 158/160/1 146/148/1 157/159/1
f 158/160/1 159/161/1 146/148/1
f 159/161/1 25/26/1 146/148/1
f 159/161/1 160/162/1 25/26/1
f 161/163/1 25/26/1 160/162/1
f 161/163/1 24/25/1 25/26/1
f 162/164/1 24/25/1 161/163/1
f 162/164/1 163/165/1 24/25/1
f 163/165/1 26/27/1 24/25/1
f 163/165/1 164/166/1 26/27/1
f 165/167/1 26/27/1 164/166/1
f 165/167/1 27/28/1 26/27/1
f 166/168/1 27/28/1 165/167/1
f 166/168/1 167/169/1 27/28/1
f 167/169/1 28/29/1 27/28/1
f 167/169/1 168/170/1 28/29/1
f 169/171/1 28/29/1 168/170/1
f 169/171/1 29/30/1 28/29/1
f 170/172/1 29/30/1 169/171/1
f 170/172/1 171/173/1 29/30/1
f 171/173/1 9/10/1 29/30/1
f 171/173/1 10/11/1 9/10/1
f 172/174/1 135/137/1 147/175/1
f 172/174/1 136/138/1 135/137/1
f 173/176/1 136/138/1 172/174/1
f 173/176/1 174/177/1 136/138/1
f 174/177/1 137/139/1 136/138/1
f 174/177/1 175/178/1 137/139/1
f 176/179/1 137/139/1 175/178/1
f 176/179/1 138/140/1 137/139/1
f 177/180/1 138/140/1 176/179/1
f 177/180/1 178/181/1 138/140/1
f 178/181/1 139/141/1 138/140/1
f 178/181/1 179/182/1 139/141/1
f 180/183/1 139/141/1 179/182/1
f 180/183/1 140/142/1 139/141/1
f 181/184/1 140/142/1 180/183/1
f 181/184/1 182/185/1 140/142/1
f 182/185/1 141/143/1 140/142/1
f 182/185/1 149/151/1 141/143/1
f 183/186/1 23/24/1 22/23/1
f 183/186/1 184/187/1 23/24/1
f 184/187/1 30/31/1 23/24/1
f 184/187/1 185/188/1 30/31/1
f 186/189/1 30/31/1 185/188/1
f 186/189/1 31/32/1 30/31/1
f 187/190/1 31/32/1 186/189/1
f 187/190/1 188/191/1 31/32/1
f 188/191/1 32/33/1 31/32/1
f 188/191/1 189/192/1 32/33/1
f 190/193/1 32/33/1 189/192/1
f 190/193/1 33/34/1 32/33/1
f 191/194/1 33/34/1 190/193/1
f 191/194/1 192/195/1 33/34/1
f 192/195/1 34/35/1 33/34/1
f 192/195/1 193/196/1 34/35/1
f 48/49/1 34/35/1 193/196/1
f 48/49/1 35/36/1 34/35/1
