# Blender 4.2.1 LTS
# www.blender.org
mtllib RustGateDoorTwo.mtl
o Rust
v 0.023520 1.451259 0.025797
v 0.023520 1.451259 -0.027387
v -0.849957 1.451259 -0.027387
v -0.849957 1.451259 0.025797
v 0.023520 1.409632 -0.027387
v 0.023520 1.409632 0.025797
v -0.849957 1.409632 -0.027387
v -0.849957 1.409632 0.025797
v 0.025628 0.007050 0.035098
v 0.025628 0.007050 -0.036689
v -0.852065 0.007050 -0.036689
v -0.852065 0.007050 0.035098
v 0.025628 -0.048902 -0.036689
v 0.025628 -0.048902 0.035098
v -0.852065 -0.048902 -0.036689
v -0.852065 -0.048902 0.035098
v 0.023520 1.226245 0.025797
v 0.023520 1.226245 -0.027387
v -0.849957 1.226245 -0.027387
v -0.849957 1.226245 0.025797
v 0.023520 1.180601 -0.027387
v 0.023520 1.180601 0.025797
v -0.849957 1.180601 -0.027387
v -0.849957 1.180601 0.025797
v 0.023520 0.260667 0.025797
v 0.023520 0.260667 -0.027387
v -0.849957 0.260667 -0.027387
v -0.849957 0.260667 0.025797
v 0.023520 0.215023 -0.027387
v 0.023520 0.215023 0.025797
v -0.849957 0.215023 -0.027387
v -0.849957 0.215023 0.025797
v 0.018086 1.429542 0.015294
v 0.018086 1.429542 -0.016885
v 0.018086 -0.012222 0.015294
v 0.018086 -0.012222 -0.016885
v -0.844523 1.429542 -0.016885
v -0.844523 1.429542 0.015294
v -0.844523 -0.012222 0.015294
v -0.844523 -0.012222 -0.016885
v 14.210563 0.878030 1.777495
v 14.210563 -0.121970 1.777495
v 16.683226 0.034356 -3.338230
v 16.683226 0.284477 -3.338230
v 16.683226 0.056860 -3.338230
v 16.683226 0.306981 -3.338230
vn -0.0000 1.0000 -0.0000
vn -0.0000 -1.0000 -0.0000
vn -1.0000 -0.0000 -0.0000
vn 1.0000 -0.0000 -0.0000
vn -0.0000 -0.0000 1.0000
vn -0.0000 -0.0000 -1.0000
vt 0.822783 0.465089
vt 0.822645 0.465056
vt 0.822665 0.404844
vt 0.822804 0.404877
vt 0.673050 0.763016
vt 0.673050 0.823231
vt 0.669385 0.823231
vt 0.669385 0.763016
vt 0.821845 0.649530
vt 0.818975 0.649530
vt 0.818943 0.649461
vt 0.821812 0.649461
vt 0.819916 0.465089
vt 0.819777 0.465056
vt 0.818953 0.589257
vt 0.821823 0.589257
vt 0.819798 0.404844
vt 0.811298 0.465724
vt 0.811112 0.465679
vt 0.811132 0.405176
vt 0.811319 0.405221
vt 0.819349 0.270617
vt 0.819349 0.331122
vt 0.814402 0.331122
vt 0.814402 0.270617
vt 0.220954 0.813040
vt 0.217097 0.813040
vt 0.217053 0.812947
vt 0.220910 0.812947
vt 0.807444 0.465724
vt 0.807257 0.465679
vt 0.217063 0.752453
vt 0.220920 0.752453
vt 0.807278 0.405176
vt 0.823060 0.402119
vt 0.822922 0.402086
vt 0.822942 0.341874
vt 0.823080 0.341907
vt 0.679112 0.763016
vt 0.679112 0.823231
vt 0.675447 0.823231
vt 0.675447 0.763016
vt 0.821139 0.259557
vt 0.817992 0.259557
vt 0.817960 0.259488
vt 0.821106 0.259488
vt 0.819916 0.402119
vt 0.819778 0.402086
vt 0.817970 0.199284
vt 0.821117 0.199284
vt 0.819798 0.341874
vt 0.822662 0.061443
vt 0.822524 0.061410
vt 0.822544 0.001198
vt 0.822682 0.001231
vt 0.685174 0.763016
vt 0.685174 0.823231
vt 0.681509 0.823231
vt 0.681509 0.763016
vt 0.821298 0.722092
vt 0.818151 0.722092
vt 0.818119 0.722023
vt 0.821265 0.722023
vt 0.819517 0.061443
vt 0.819379 0.061410
vt 0.818129 0.661819
vt 0.821275 0.661819
vt 0.819400 0.001198
vt 0.687325 0.589361
vt 0.687345 0.589277
vt 0.687345 0.688597
vt 0.687325 0.688681
vt 0.614707 0.594499
vt 0.614707 0.693885
vt 0.614666 0.693905
vt 0.614666 0.594519
vt 0.825200 0.404844
vt 0.827418 0.404844
vt 0.827418 0.464309
vt 0.825200 0.464309
vt 0.555211 0.693895
vt 0.555211 0.594509
vt 0.627862 0.589341
vt 0.627882 0.589257
vt 0.627862 0.688660
s 0
usemtl base
f 1/1/1 2/2/1 3/3/1 4/4/1
f 6/5/2 8/6/2 7/7/2 5/8/2
f 3/9/3 7/10/3 8/11/3 4/12/3
f 1/1/4 6/13/4 5/14/4 2/2/4
f 4/12/5 8/11/5 6/15/5 1/16/5
f 2/2/6 5/14/6 7/17/6 3/3/6
f 9/18/1 10/19/1 11/20/1 12/21/1
f 14/22/2 16/23/2 15/24/2 13/25/2
f 11/26/3 15/27/3 16/28/3 12/29/3
f 9/18/4 14/30/4 13/31/4 10/19/4
f 12/29/5 16/28/5 14/32/5 9/33/5
f 10/19/6 13/31/6 15/34/6 11/20/6
f 17/35/1 18/36/1 19/37/1 20/38/1
f 22/39/2 24/40/2 23/41/2 21/42/2
f 19/43/3 23/44/3 24/45/3 20/46/3
f 17/35/4 22/47/4 21/48/4 18/36/4
f 20/46/5 24/45/5 22/49/5 17/50/5
f 18/36/6 21/48/6 23/51/6 19/37/6
f 25/52/1 26/53/1 27/54/1 28/55/1
f 30/56/2 32/57/2 31/58/2 29/59/2
f 27/60/3 31/61/3 32/62/3 28/63/3
f 25/52/4 30/64/4 29/65/4 26/53/4
f 28/63/5 32/62/5 30/66/5 25/67/5
f 26/53/6 29/65/6 31/68/6 27/54/6
f 34/69/4 33/70/4 35/71/4 36/72/4
f 37/73/3 40/74/3 39/75/3 38/76/3
f 36/77/2 35/78/2 39/79/2 40/80/2
f 35/81/5 33/82/5 38/76/5 39/75/5
f 33/70/1 34/69/1 37/83/1 38/84/1
f 34/69/6 36/72/6 40/85/6 37/83/6
